<svg width="202" height="203" viewBox="0 0 202 203" fill="none" xmlns="http://www.w3.org/2000/svg">
<path d="M110.144 127.539L110.146 127.54C116.171 131.972 124.687 131.263 129.987 125.964C133.43 122.521 138.974 122.521 142.418 125.964C145.861 129.407 145.861 134.952 142.418 138.395C136.857 143.955 129.513 147.327 121.722 147.942C120.821 147.985 119.973 148.025 119.133 148.025C112.192 148.025 105.409 145.793 99.7571 141.647C84.7036 130.559 71.4415 117.297 60.3538 102.243C55.7243 95.9489 53.489 88.1483 54.0985 80.3067C54.7079 72.4658 58.1213 65.1095 63.6484 59.5824C67.0916 56.1392 72.6359 56.1392 76.0791 59.5824L76.0791 59.5824L76.0864 59.5897C79.5098 62.9782 79.5327 68.5605 76.0783 72.057C70.7267 77.3663 70.0797 85.884 74.5028 91.8975L74.5041 91.8992C84.5373 105.509 96.5337 117.506 110.144 127.539Z" stroke="black" stroke-width="4"/>
<path d="M102.5 78.5023C108.833 79.169 122.2 84.9023 125 102.502" stroke="black" stroke-width="4" stroke-linecap="round" stroke-linejoin="round"/>
<path d="M102.5 68.0023C113.333 68.169 135.3 75.4023 136.5 103.002" stroke="black" stroke-width="4" stroke-linecap="round" stroke-linejoin="round"/>
<path d="M103 57.0023C117.333 56.8356 146.6 65.7023 149 102.502" stroke="black" stroke-width="4" stroke-linecap="round" stroke-linejoin="round"/>
<path d="M94.3191 0C98.7904 0 103.262 0 107.733 0C111.047 0.422818 114.361 0.79279 117.623 1.37418C136.297 4.59821 152.867 12.3148 167.123 24.8409C185.008 40.5912 196.213 60.2525 200.422 83.825C201.106 87.5775 201.474 91.33 202 95.1354C202 99.3637 202 103.592 202 107.82C201.579 111.203 201.263 114.585 200.685 117.968C197.107 139.215 187.849 157.554 172.752 172.829C157.707 188.052 139.664 197.618 118.622 201.37C114.887 202.004 111.1 202.428 107.365 202.955C103.157 202.955 98.9482 202.955 94.74 202.955C94.056 202.85 93.3196 202.638 92.6358 202.586C89.0586 202.11 85.4816 201.793 81.9045 201.105C62.0202 197.247 44.8187 188.157 30.4052 173.993C15.0447 158.824 5.41822 140.59 1.57812 119.289C0.946866 115.59 0.52604 111.89 0 108.19C0 103.698 0 99.2051 0 94.7126C0.157812 94.0784 0.315624 93.4441 0.368228 92.81C0.841671 89.3745 1.10468 85.8333 1.78854 82.4507C6.04947 60.6224 16.2546 42.071 32.5093 26.955C46.9755 13.5304 63.9666 4.96818 83.4301 1.58559C87.0597 0.951361 90.6894 0.528532 94.3191 0ZM4.73436 101.425C4.73436 154.648 47.8171 198.199 100.579 198.199C153.972 198.252 197.213 155.071 197.265 101.742C197.318 48.3606 154.235 4.75677 101.421 4.75677C47.9749 4.70393 4.73436 47.8849 4.73436 101.425Z" fill="black"/>
</svg>
