<svg width="227" height="227" viewBox="0 0 227 227" fill="none" xmlns="http://www.w3.org/2000/svg">
<g clip-path="url(#clip0_12_56)">
<path d="M38.831 38.7834C38.831 88.3834 38.831 137.983 38.831 187.783C57.431 187.783 76.031 187.783 94.631 187.783C94.631 200.683 94.631 213.483 94.631 226.283C63.231 226.283 31.831 226.283 0.330994 226.283C0.330994 150.883 0.330994 75.5834 0.330994 0.183411C75.731 0.183411 151.031 0.183411 226.331 0.183411C226.331 75.4834 226.331 150.883 226.331 226.383C225.831 226.383 225.331 226.383 224.831 226.383C204.131 226.383 183.431 226.583 162.631 226.283C144.431 226.083 128.531 219.383 115.331 206.783C104.831 196.783 98.131 184.583 95.331 170.383C94.531 166.383 94.131 162.283 94.031 158.183C93.831 150.183 93.931 142.283 93.931 134.283C93.931 133.783 93.931 133.383 93.931 132.683C89.531 132.683 85.331 132.683 81.031 132.683C81.031 119.783 81.031 107.083 81.031 94.1834C81.531 94.1834 81.931 94.0834 82.431 94.0834C85.831 94.0834 89.331 94.0834 92.731 94.0834C93.731 94.0834 93.931 93.7834 93.931 92.8834C93.931 86.3834 93.931 79.8834 93.931 73.4834C93.931 72.9834 93.931 72.4834 93.931 71.8834C106.731 69.4834 119.531 67.1834 132.431 64.7834C132.431 74.5834 132.431 84.2834 132.431 94.0834C132.931 94.0834 133.331 94.1834 133.731 94.1834C151.331 94.1834 168.831 94.1834 186.431 94.1834C187.431 94.1834 187.831 93.8834 187.831 92.8834C187.831 75.2834 187.831 57.5834 187.831 39.9834C187.831 39.5834 187.831 39.2834 187.731 38.7834C138.231 38.7834 88.631 38.7834 38.831 38.7834ZM132.731 132.783C132.731 133.183 132.631 133.583 132.631 133.883C132.631 141.683 132.631 149.583 132.631 157.383C132.631 158.683 132.731 159.983 132.931 161.183C135.231 176.383 148.431 187.783 163.731 187.783C171.331 187.783 178.931 187.783 186.531 187.783C187.631 187.783 187.931 187.383 187.931 186.383C187.931 168.983 187.931 151.483 187.931 134.083C187.931 133.683 187.931 133.183 187.831 132.783C169.431 132.783 151.131 132.783 132.731 132.783Z" fill="black"/>
</g>
<defs>
<clipPath id="clip0_12_56">
<rect width="226" height="226.2" fill="white" transform="translate(0.330994 0.183411)"/>
</clipPath>
</defs>
</svg>
