<svg width="202" height="203" viewBox="0 0 202 203" fill="none" xmlns="http://www.w3.org/2000/svg">
<path d="M94.3191 0C98.7904 0 103.262 0 107.733 0C111.047 0.422818 114.361 0.79279 117.623 1.37418C136.297 4.59821 152.867 12.3148 167.123 24.8409C185.008 40.5912 196.213 60.2525 200.422 83.825C201.106 87.5775 201.474 91.33 202 95.1354C202 99.3637 202 103.592 202 107.82C201.579 111.203 201.263 114.585 200.685 117.968C197.107 139.215 187.849 157.554 172.752 172.829C157.707 188.052 139.664 197.618 118.622 201.37C114.887 202.004 111.1 202.428 107.365 202.955C103.157 202.955 98.9482 202.955 94.74 202.955C94.056 202.85 93.3196 202.638 92.6358 202.586C89.0586 202.11 85.4816 201.793 81.9045 201.105C62.0202 197.247 44.8187 188.157 30.4052 173.993C15.0447 158.824 5.41822 140.59 1.57812 119.289C0.946866 115.59 0.52604 111.89 0 108.19C0 103.698 0 99.2051 0 94.7126C0.157812 94.0784 0.315624 93.4441 0.368228 92.81C0.841671 89.3745 1.10468 85.8333 1.78854 82.4507C6.04947 60.6224 16.2546 42.071 32.5093 26.955C46.9755 13.5304 63.9666 4.96818 83.4301 1.58559C87.0597 0.951361 90.6894 0.528532 94.3191 0ZM4.73436 101.425C4.73436 154.648 47.8171 198.199 100.579 198.199C153.972 198.252 197.213 155.071 197.265 101.742C197.318 48.3606 154.235 4.75677 101.421 4.75677C47.9749 4.70393 4.73436 47.8849 4.73436 101.425Z" fill="black"/>
<path d="M126.06 150.984L87.3704 120.369C84.9858 118.482 84.8237 114.921 87.027 112.825L110.101 90.8768C110.984 90.0366 109.881 88.647 108.862 89.3167L73.7957 112.369C72.4501 113.254 70.7607 113.436 69.2573 112.859L40.9215 101.983C36.6745 100.353 36.6342 94.3586 40.859 92.6716L146.573 50.4581C150.279 48.9784 154.139 52.2216 153.321 56.1267L134.057 148.088C133.295 151.725 128.974 153.289 126.06 150.984Z" stroke="black" stroke-width="4"/>
</svg>
