<svg width="208" height="204" viewBox="0 0 208 204" fill="none" xmlns="http://www.w3.org/2000/svg">
<path d="M21 149L4.17967 192.653C2.60133 196.749 6.68996 200.745 10.749 199.074L51 182.5" stroke="black" stroke-width="4.5"/>
<path fill-rule="evenodd" clip-rule="evenodd" d="M113.233 0H99.8191C98.6092 0.176179 97.3993 0.340614 96.1894 0.505048C93.7696 0.833911 91.3498 1.16277 88.9301 1.58559C69.4666 4.96818 52.4755 13.5304 38.0093 26.955C21.7546 42.071 11.5495 60.6224 7.28854 82.4507C6.83475 84.6953 6.56627 87.0097 6.29865 89.3168C6.16297 90.4864 6.02751 91.6542 5.86823 92.81C5.81562 93.4441 5.65781 94.0784 5.5 94.7126V108.19C5.67535 109.423 5.83901 110.657 6.00266 111.89C6.32998 114.356 6.65729 116.823 7.07812 119.289C9.43337 132.353 13.9653 144.264 20.6618 155.022L23.2798 150.035C14.9914 135.728 10.2344 119.11 10.2344 101.425C10.2344 47.8849 53.4749 4.70393 106.921 4.75677C159.735 4.75677 202.818 48.3606 202.765 101.742C202.713 155.071 159.472 198.252 106.079 198.199C85.5569 198.199 66.4992 191.61 50.8714 180.427L45.657 182.477C57.8921 191.847 71.8248 198.082 87.4045 201.105C89.9095 201.587 92.4144 201.887 94.9193 202.187C95.9915 202.315 97.0636 202.444 98.1358 202.586C98.5522 202.618 98.9881 202.709 99.4197 202.799C99.697 202.857 99.9725 202.914 100.24 202.955H112.865C114.131 202.777 115.403 202.61 116.677 202.442C119.162 202.116 121.653 201.789 124.122 201.37C145.164 197.618 163.207 188.052 178.252 172.829C193.349 157.554 202.607 139.215 206.185 117.968C206.597 115.554 206.876 113.139 207.156 110.725C207.268 109.757 207.379 108.788 207.5 107.82V95.1354C207.329 93.8992 207.175 92.6686 207.021 91.4417C206.701 88.8919 206.384 86.3585 205.922 83.825C201.713 60.2525 190.508 40.5912 172.623 24.8409C158.367 12.3148 141.797 4.59821 123.123 1.37418C120.498 0.906242 117.839 0.575261 115.173 0.243453C114.527 0.163005 113.88 0.0825088 113.233 0Z" fill="black"/>
<path d="M81.3785 55.1056L91.9345 76.2175C94.0912 80.531 90.2943 86.2946 87.1566 89.7158C86.2625 90.6908 85.9717 92.116 86.601 93.2796C94.1384 107.217 107.344 115.037 115.243 118.089C116.987 118.763 118.924 118.21 120.206 116.848L128.597 107.933C129.89 106.559 131.969 106.276 133.583 107.254L155.411 120.483C156.385 121.073 156.953 122.169 156.789 123.296C154.888 136.409 144.975 143.794 139.13 146.365C138.361 146.703 137.518 146.871 136.68 146.917C91.7726 149.355 66.4762 114.666 59.4016 96.8481C52.8623 79.608 61.1231 62.8783 66.9778 55.3923C67.686 54.4868 68.7887 54 69.9382 54H79.5896C80.3472 54 81.0397 54.428 81.3785 55.1056Z" stroke="black" stroke-width="4"/>
</svg>
